<?xml version="1.0" standalone="no"?>
<!DOCTYPE svg PUBLIC "-//W3C//DTD SVG 20010904//EN"
 "http://www.w3.org/TR/2001/REC-SVG-20010904/DTD/svg10.dtd">
<svg version="1.0" xmlns="http://www.w3.org/2000/svg"
 width="400.000000pt" height="400.000000pt" viewBox="0 0 400.000000 400.000000"
 preserveAspectRatio="xMidYMid meet">
<metadata>
Created by potrace 1.11, written by Peter Selinger 2001-2013
</metadata>
<g transform="translate(0.000000,400.000000) scale(0.100000,-0.100000)"
fill="#000000" stroke="none">
<path d="M1969 2906 c-2 -2 -27 -6 -56 -10 -122 -14 -241 -74 -339 -171 -118
-117 -178 -253 -183 -417 l-1 -27 -57 26 c-48 21 -74 26 -149 27 -86 0 -96 -2
-166 -36 -103 -52 -172 -128 -207 -230 l-17 -50 -62 0 c-246 0 -458 -164 -529
-408 -12 -41 -11 -210 1 -257 51 -191 208 -345 400 -392 34 -8 225 -12 664
-12 l616 0 17 22 c9 12 22 20 30 17 12 -4 14 -54 14 -281 1 -153 -1 -277 -3
-277 -2 0 -47 45 -100 100 -112 115 -137 126 -183 81 -23 -23 -27 -34 -22 -62
5 -34 6 -35 279 -315 46 -47 91 -84 105 -86 35 -6 68 13 118 68 24 27 87 96
141 154 144 156 147 160 144 199 -3 42 -21 60 -65 67 -39 7 -47 0 -175 -141
-37 -41 -70 -75 -73 -75 -4 0 -6 128 -6 285 0 284 0 285 21 285 13 0 24 -8 27
-20 4 -15 14 -20 39 -21 174 -2 1260 1 1266 5 4 2 25 7 47 10 64 11 177 72
239 132 173 164 216 404 113 624 -45 96 -158 205 -257 249 -71 31 -76 35 -76
64 -4 268 -191 492 -454 543 -53 10 -182 7 -231 -6 -64 -17 -158 -63 -203 -99
-40 -32 -53 -31 -60 5 -14 68 -102 211 -165 267 -87 77 -216 139 -316 152 -90
11 -123 14 -126 11z"/>
</g>
</svg>
